<?xml version="1.0" encoding="utf-8"?>
<!-- Generator: Adobe Illustrator 19.2.1, SVG Export Plug-In . SVG Version: 6.00 Build 0)  -->
<svg version="1.1" id="Layer_1" xmlns="http://www.w3.org/2000/svg" xmlns:xlink="http://www.w3.org/1999/xlink" x="0px" y="0px"
	 viewBox="0 0 232 32" style="enable-background:new 0 0 232 32;" xml:space="preserve">
<style type="text/css">
	.st0{fill:#D04E28;}
	.st1{fill:#D9BE26;}
</style>
<g>
	<g id="vhlczV.tif">
		<g>
			<path d="M58.5,9.9c-9.4,0-18.6,0-27.9,0c-1.4,0-2.7,0.1-4.1,0.1c-1.6,0.1-3,0.7-4.3,1.6c-3.3,2.3-3.3,6.4,0,8.8
				c2.1,1.5,4.5,1.8,7,1.8c8.8,0,17.7,0,26.5,0c0.9,0,1.8,0,3.2,0c-4,4.7-8.8,6.8-14,8c-11.1,2.6-22.2,2.5-33-1.3
				c-3.4-1.2-6.5-2.9-8.9-5.7C-1,18.8-1,12.8,3.1,8.5C7.6,3.8,13.4,2.1,19.4,1C29.4-0.7,39.2-0.4,48.8,3C53.5,4.6,56.7,6.9,58.5,9.9
				z"/>
			<path d="M65.5,15.8c0-4.2,0.1-8.3,0-12.5c0-1.5,0.4-2.1,2-2.1c5.4,0,10.7,0,16.1,0c1.6,0,1.9,0.4,2,2c0,1.9-0.1,4.3,0,6.3
				c0.1,1.6,0.3,1.4,1.8,0.9c7.3-2.4,14.7-2.2,22.1-1c6.1,1.1,7.3,3.4,7.3,8.7c0,3.4,0,6.8,0,10.3c0,1.5-0.3,2.1-1.9,2.1
				c-5.4-0.1-10.7-0.1-16.1,0c-1.6,0-1.9-0.5-1.9-2.1c-0.1-3.5-0.1-6.9,0-10.2c0-2.6-1.2-3.7-3.6-3.8c-1.1,0-2.2-0.1-3.3,0
				c-3.4,0.3-4.4,1.5-4.4,4.9c0,3.1-0.1,6.3,0,9.4c0,1.4-0.4,1.7-1.7,1.7c-5.6-0.1-11.1-0.1-16.7,0c-1.4,0-1.7-0.5-1.7-1.8
				C65.5,24.5,65.5,20.2,65.5,15.8z"/>
			<path class="st0" d="M173.8,15.8c0,4.2-0.1,8.3,0,12.5c0,1.6-0.3,2.3-2.1,2.3c-3.2,0-5.5,0-8.2-0.1c-5.3-0.2-9.6-4.3-9.8-9.7
				c-0.2-5.9,0-11.8-0.1-17.8c0-1.3,0.4-1.8,1.7-1.8c5.5,0,11.1,0.1,16.6,0c1.6,0,1.8,0.7,1.8,2C173.8,7.5,173.8,11.7,173.8,15.8z"
				/>
			<path class="st1" d="M202.3,16.1c0,4.1-0.1,8.1,0,12.2c0.1,1.9-0.6,2.3-2.3,2.3c-2.8,0-5.1,0-7.6,0c-5.5-0.1-9.8-4-10.1-9.6
				c-0.3-6-0.1-12-0.1-18c0-1.2,0.4-1.6,1.6-1.6c5.6,0,11.3,0.1,16.9,0c1.6,0,1.7,0.8,1.7,2.1C202.3,7.6,202.3,11.9,202.3,16.1z"/>
			<path d="M125.3,20.1c0-3,0-5.9,0-8.9c0-1.2,0.3-1.6,1.5-1.6c5.6,0.1,11.3,0,16.9,0c1.2,0,1.6,0.4,1.6,1.6c0,6,0,12,0,18
				c0,1.1-0.4,1.4-1.4,1.4c-5.7,0-11.4-0.1-17.2,0c-1.3,0-1.4-0.6-1.4-1.7C125.3,26,125.3,23.1,125.3,20.1z"/>
			<path d="M135.2,6.9c-2.7,0-5.4,0-8.1,0c-1.6,0-1.9-0.3-2-2.8c0.1-2.5,0.4-2.8,1.8-2.8c5.5,0,11.2,0,16.7,0c1.7,0,1.6,1.1,1.6,3.1
				c0,1.4,0.1,2.5-1.7,2.4C140.8,6.9,137.9,6.9,135.2,6.9z"/>
		</g>
	</g>
	<path d="M212,20.1c0-3,0-5.9,0-8.9c0-1.2,0.3-1.6,1.5-1.6c5.6,0.1,11.3,0,16.9,0c1.2,0,1.6,0.4,1.6,1.6c0,6,0,12,0,18
		c0,1.1-0.4,1.4-1.4,1.4c-5.7,0-11.4-0.1-17.2,0c-1.3,0-1.4-0.6-1.4-1.7C212,26,212,23.1,212,20.1z"/>
	<path d="M221.9,6.9c-2.7,0-5.4,0-8.1,0c-1.6,0-1.9-0.3-2-2.8c0.1-2.5,0.4-2.8,1.8-2.8c5.5,0,11.2,0,16.7,0c1.7,0,1.6,1.1,1.6,3.1
		c0,1.4,0.1,2.5-1.7,2.4C227.5,6.9,224.7,6.9,221.9,6.9z"/>
</g>
<g>
</g>
<g>
</g>
<g>
</g>
<g>
</g>
<g>
</g>
<g>
</g>
</svg>
