<?xml version="1.0" encoding="utf-8"?>
<!-- Generator: Adobe Illustrator 19.2.1, SVG Export Plug-In . SVG Version: 6.00 Build 0)  -->
<svg version="1.1" id="Layer_1" xmlns="http://www.w3.org/2000/svg" xmlns:xlink="http://www.w3.org/1999/xlink" x="0px" y="0px"
	 viewBox="0 0 130 18" style="enable-background:new 0 0 130 18;" xml:space="preserve">
<style type="text/css">
	.st0{fill:#FFFFFF;}
	.st1{fill:#D04E28;}
	.st2{fill:#D9BE26;}
</style>
<g>
	<g id="vhlczV.tif">
		<g>
			<path class="st0" d="M32.8,5.6c-5.3,0-10.4,0-15.6,0c-0.8,0-1.5,0-2.3,0.1c-0.9,0-1.7,0.4-2.4,0.9c-1.9,1.3-1.9,3.6,0,4.9
				c1.2,0.8,2.5,1,3.9,1c4.9,0,9.9,0,14.8,0c0.5,0,1,0,1.8,0c-2.2,2.6-4.9,3.8-7.9,4.5c-6.2,1.5-12.4,1.4-18.5-0.7
				c-1.9-0.7-3.6-1.6-5-3.2c-2.2-2.5-2.2-5.9,0.1-8.3c2.5-2.6,5.8-3.6,9.2-4.2c5.6-1,11.1-0.8,16.4,1.1C30,2.6,31.8,3.9,32.8,5.6z"
				/>
			<path class="st0" d="M36.7,8.9c0-2.3,0-4.7,0-7c0-0.9,0.2-1.2,1.1-1.2c3,0,6,0,9,0c0.9,0,1.1,0.2,1.1,1.1c0,1.1-0.1,2.4,0,3.6
				c0,0.9,0.2,0.8,1,0.5c4.1-1.4,8.3-1.3,12.4-0.5c3.4,0.6,4.1,1.9,4.1,4.9c0,1.9,0,3.8,0,5.8c0,0.8-0.2,1.2-1.1,1.2
				c-3-0.1-6-0.1-9,0c-0.9,0-1-0.3-1.1-1.2c0-2,0-3.9,0-5.8c0-1.5-0.6-2.1-2-2.1c-0.6,0-1.2,0-1.8,0C48.5,8.4,47.9,9,47.9,11
				c0,1.8,0,3.5,0,5.3c0,0.8-0.2,1-1,1c-3.1,0-6.2,0-9.3,0c-0.8,0-0.9-0.3-0.9-1C36.7,13.8,36.7,11.4,36.7,8.9z"/>
			<path class="st1" d="M97.4,8.9c0,2.3,0,4.7,0,7c0,0.9-0.2,1.3-1.2,1.3c-1.8,0-3.1,0-4.6,0c-3-0.1-5.4-2.4-5.5-5.4
				c-0.1-3.3,0-6.7,0-10c0-0.7,0.2-1,1-1c3.1,0,6.2,0,9.3,0c0.9,0,1,0.4,1,1.1C97.4,4.2,97.4,6.6,97.4,8.9z"/>
			<path class="st2" d="M113.3,9.1c0,2.3-0.1,4.6,0,6.9c0,1.1-0.3,1.3-1.3,1.3c-1.6,0-2.9,0-4.3,0c-3.1-0.1-5.5-2.2-5.7-5.4
				c-0.2-3.4,0-6.8-0.1-10.1c0-0.7,0.2-0.9,0.9-0.9c3.2,0,6.3,0,9.5,0c0.9,0,0.9,0.5,0.9,1.2C113.3,4.3,113.3,6.7,113.3,9.1z"/>
			<path class="st0" d="M70.2,11.3c0-1.7,0-3.3,0-5c0-0.7,0.2-0.9,0.9-0.9c3.2,0,6.3,0,9.5,0c0.7,0,0.9,0.2,0.9,0.9
				c0,3.4,0,6.8,0,10.1c0,0.6-0.2,0.8-0.8,0.8c-3.2,0-6.4,0-9.6,0c-0.7,0-0.8-0.4-0.8-1C70.2,14.6,70.2,13,70.2,11.3z"/>
			<path class="st0" d="M75.8,3.9c-1.5,0-3,0-4.6,0c-0.9,0-1.1-0.2-1.1-1.6c0-1.4,0.2-1.6,1-1.6c3.1,0,6.3,0,9.4,0
				c0.9,0,0.9,0.6,0.9,1.8c0,0.8,0,1.4-1,1.4C78.9,3.9,77.3,3.9,75.8,3.9z"/>
		</g>
	</g>
	<path class="st0" d="M118.8,11.3c0-1.7,0-3.3,0-5c0-0.7,0.2-0.9,0.9-0.9c3.2,0,6.3,0,9.5,0c0.7,0,0.9,0.2,0.9,0.9
		c0,3.4,0,6.8,0,10.1c0,0.6-0.2,0.8-0.8,0.8c-3.2,0-6.4,0-9.6,0c-0.7,0-0.8-0.4-0.8-1C118.8,14.7,118.8,13,118.8,11.3z"/>
	<path class="st0" d="M124.4,3.9c-1.5,0-3,0-4.6,0c-0.9,0-1.1-0.2-1.1-1.6c0-1.4,0.2-1.6,1-1.6c3.1,0,6.3,0,9.4,0
		c0.9,0,0.9,0.6,0.9,1.8c0,0.8,0,1.4-1,1.4C127.5,3.9,125.9,3.9,124.4,3.9z"/>
</g>
<g>
</g>
<g>
</g>
<g>
</g>
<g>
</g>
<g>
</g>
<g>
</g>
</svg>
